<svg xmlns="http://www.w3.org/2000/svg" xmlns:xlink="http://www.w3.org/1999/xlink" width="500" zoomAndPan="magnify" viewBox="0 0 375 374.999991" height="500" preserveAspectRatio="xMidYMid meet" version="1.2"><defs/><g id="250cc1b8c3"><rect x="0" width="375" y="0" height="374.999991" style="fill:#ffffff;fill-opacity:1;stroke:none;"/><rect x="0" width="375" y="0" height="374.999991" style="fill:#ffffff;fill-opacity:1;stroke:none;"/><g style="fill:#6b4153;fill-opacity:1;"><g transform="translate(87.85562, 225.057814)"><path style="stroke:none" d="M 11.890625 -185 C 11.566406 -185.007812 11.40625 -185.179688 11.40625 -185.515625 C 11.414062 -185.835938 11.582031 -185.992188 11.90625 -185.984375 L 32.265625 -185.546875 L 70.09375 -38 L 114.171875 -183.8125 L 138.5 -183.28125 C 138.832031 -183.28125 138.992188 -183.117188 138.984375 -182.796875 C 138.984375 -182.460938 138.816406 -182.296875 138.484375 -182.296875 C 135.671875 -182.359375 133.445312 -181.125 131.8125 -178.59375 C 130.1875 -176.0625 128.957031 -172.863281 128.125 -169 C 127.300781 -165.132812 126.722656 -161.175781 126.390625 -157.125 C 126.066406 -153.070312 125.875 -149.554688 125.8125 -146.578125 L 125.015625 -121.5 L 123.703125 -59.6875 L 123.40625 -34.375 C 123.34375 -31.40625 123.390625 -27.890625 123.546875 -23.828125 C 123.710938 -19.765625 124.125 -15.78125 124.78125 -11.875 C 125.445312 -7.96875 126.535156 -4.710938 128.046875 -2.109375 C 129.566406 0.484375 131.734375 1.8125 134.546875 1.875 C 134.878906 1.875 135.046875 2.039062 135.046875 2.375 C 135.035156 2.707031 134.863281 2.875 134.53125 2.875 L 99.046875 2.109375 C 99.046875 2.109375 99.003906 2.066406 98.921875 1.984375 C 98.835938 1.898438 98.800781 1.773438 98.8125 1.609375 C 98.8125 1.441406 98.851562 1.316406 98.9375 1.234375 C 99.019531 1.148438 99.0625 1.109375 99.0625 1.109375 C 101.863281 1.171875 104.117188 -0.0546875 105.828125 -2.578125 C 107.546875 -5.109375 108.816406 -8.3125 109.640625 -12.1875 C 110.472656 -16.0625 111.054688 -20.023438 111.390625 -24.078125 C 111.722656 -28.128906 111.921875 -31.640625 111.984375 -34.609375 L 114.90625 -171.375 L 66.78125 -10.5 C 66.78125 -10.332031 66.734375 -10.082031 66.640625 -9.75 C 66.554688 -9.425781 66.347656 -9.265625 66.015625 -9.265625 C 65.847656 -9.273438 65.679688 -9.445312 65.515625 -9.78125 C 65.359375 -10.113281 65.28125 -10.363281 65.28125 -10.53125 L 27.21875 -158.59375 L 25.15625 -61.78125 L 25.0625 -45.890625 C 25 -42.753906 25.117188 -38.65625 25.421875 -33.59375 C 25.734375 -28.539062 26.453125 -23.4375 27.578125 -18.28125 C 28.710938 -13.125 30.523438 -8.820312 33.015625 -5.375 C 35.503906 -1.9375 38.984375 -0.171875 43.453125 -0.078125 C 43.785156 -0.0664062 43.953125 0.101562 43.953125 0.4375 C 43.941406 0.769531 43.769531 0.929688 43.4375 0.921875 L 7.9375 0.171875 C 7.613281 0.160156 7.457031 -0.0078125 7.46875 -0.34375 C 7.46875 -0.675781 7.628906 -0.835938 7.953125 -0.828125 C 10.773438 -0.765625 13.039062 -2 14.75 -4.53125 C 16.457031 -7.0625 17.722656 -10.265625 18.546875 -14.140625 C 19.378906 -18.015625 19.960938 -21.976562 20.296875 -26.03125 C 20.628906 -30.082031 20.828125 -33.59375 20.890625 -36.5625 L 23.296875 -148.765625 C 23.359375 -151.742188 23.304688 -155.265625 23.140625 -159.328125 C 22.972656 -163.390625 22.554688 -167.367188 21.890625 -171.265625 C 21.234375 -175.160156 20.109375 -178.40625 18.515625 -181 C 16.921875 -183.601562 14.710938 -184.9375 11.890625 -185 Z M 11.890625 -185 "/></g></g><g style="fill:#6b4153;fill-opacity:1;"><g transform="translate(133.394724, 331.713672)"><path style="stroke:none" d="M 3.953125 -151.21875 C 3.953125 -160.445312 6.359375 -168.890625 11.171875 -176.546875 C 15.992188 -184.203125 23.484375 -190.335938 33.640625 -194.953125 C 43.804688 -199.566406 57.003906 -201.875 73.234375 -201.875 C 78.640625 -201.875 84.179688 -201.507812 89.859375 -200.78125 C 95.535156 -200.0625 100.976562 -198.910156 106.1875 -197.328125 C 111.394531 -195.742188 115.847656 -193.566406 119.546875 -190.796875 L 125.6875 -201.875 L 126.46875 -201.875 L 126.46875 -155.96875 L 125.6875 -155.96875 C 122.382812 -168.757812 116.046875 -178.945312 106.671875 -186.53125 C 97.304688 -194.125 85.234375 -197.921875 70.453125 -197.921875 C 58.710938 -197.921875 48.945312 -196.039062 41.15625 -192.28125 C 33.375 -188.519531 27.601562 -183.472656 23.84375 -177.140625 C 20.082031 -170.804688 18.203125 -163.75 18.203125 -155.96875 C 18.203125 -148.96875 19.851562 -143.023438 23.15625 -138.140625 C 26.457031 -133.265625 30.910156 -129.078125 36.515625 -125.578125 C 42.117188 -122.085938 48.382812 -118.988281 55.3125 -116.28125 C 62.238281 -113.570312 69.429688 -110.929688 76.890625 -108.359375 C 84.347656 -105.785156 91.539062 -102.914062 98.46875 -99.75 C 105.394531 -96.582031 111.660156 -92.851562 117.265625 -88.5625 C 122.878906 -84.28125 127.332031 -79.070312 130.625 -72.9375 C 133.925781 -66.800781 135.578125 -59.378906 135.578125 -50.671875 C 135.578125 -42.222656 133.796875 -34.632812 130.234375 -27.90625 C 126.671875 -21.175781 121.820312 -15.4375 115.6875 -10.6875 C 109.550781 -5.9375 102.625 -2.3125 94.90625 0.1875 C 87.1875 2.695312 79.171875 3.953125 70.859375 3.953125 C 59.378906 3.953125 49.316406 2.601562 40.671875 -0.09375 C 32.023438 -2.800781 23.285156 -7.054688 14.453125 -12.859375 L 6.53125 4.15625 L 5.734375 4.15625 L 5.734375 -49.875 L 6.53125 -49.875 L 14.84375 -24.734375 C 21.570312 -17.347656 29.09375 -11.410156 37.40625 -6.921875 C 45.71875 -2.441406 55.484375 -0.203125 66.703125 -0.203125 C 73.429688 -0.203125 79.925781 -1.289062 86.1875 -3.46875 C 92.457031 -5.644531 98.132812 -8.742188 103.21875 -12.765625 C 108.300781 -16.785156 112.328125 -21.535156 115.296875 -27.015625 C 118.265625 -32.492188 119.75 -38.53125 119.75 -45.125 C 119.75 -52.90625 118.128906 -59.46875 114.890625 -64.8125 C 111.660156 -70.15625 107.273438 -74.640625 101.734375 -78.265625 C 96.191406 -81.898438 89.988281 -85.035156 83.125 -87.671875 C 76.257812 -90.316406 69.164062 -92.859375 61.84375 -95.296875 C 54.519531 -97.742188 47.425781 -100.414062 40.5625 -103.3125 C 33.707031 -106.21875 27.507812 -109.710938 21.96875 -113.796875 C 16.425781 -117.890625 12.035156 -122.972656 8.796875 -129.046875 C 5.566406 -135.117188 3.953125 -142.507812 3.953125 -151.21875 Z M 3.953125 -151.21875 "/></g></g></g></svg>