<svg xmlns="http://www.w3.org/2000/svg" xmlns:xlink="http://www.w3.org/1999/xlink" width="500" zoomAndPan="magnify" viewBox="0 0 375 374.999991" height="500" preserveAspectRatio="xMidYMid meet" version="1.2"><defs><clipPath id="01e99b4ab2"><path d="M 187.5 0 C 83.945312 0 0 83.945312 0 187.5 C 0 291.054688 83.945312 375 187.5 375 C 291.054688 375 375 291.054688 375 187.5 C 375 83.945312 291.054688 0 187.5 0 Z M 187.5 0 "/></clipPath></defs><g id="679da440fa"><g clip-rule="nonzero" clip-path="url(#01e99b4ab2)"><rect x="0" width="375" y="0" height="374.999991" style="fill:#391524;fill-opacity:1;stroke:none;"/></g><g style="fill:#6b4153;fill-opacity:0.4;"><g transform="translate(104.850371, 320.080481)"><path style="stroke:none" d="M 8.125 0 C 10.945312 -5.644531 12.769531 -11.347656 13.59375 -17.109375 C 14.414062 -22.878906 14.828125 -31.648438 14.828125 -43.421875 L 14.828125 -204.03125 C 14.828125 -215.789062 14.414062 -224.492188 13.59375 -230.140625 C 12.769531 -235.796875 10.945312 -241.445312 8.125 -247.09375 L 64.59375 -247.09375 C 63.414062 -244.5 62.648438 -242.257812 62.296875 -240.375 C 61.941406 -238.5 61.765625 -235.5625 61.765625 -231.5625 C 61.765625 -223.320312 63.234375 -211.847656 66.171875 -197.140625 C 69.117188 -182.429688 72.707031 -166.25 76.9375 -148.59375 C 81.175781 -130.945312 85.414062 -113.300781 89.65625 -95.65625 C 92.71875 -108.832031 96.070312 -122.128906 99.71875 -135.546875 C 103.363281 -148.960938 106.773438 -161.785156 109.953125 -174.015625 C 113.128906 -186.253906 115.71875 -197.316406 117.71875 -207.203125 C 119.71875 -217.085938 120.71875 -225.207031 120.71875 -231.5625 C 120.71875 -235.5625 120.539062 -238.5 120.1875 -240.375 C 119.832031 -242.257812 119.066406 -244.5 117.890625 -247.09375 L 172.96875 -247.09375 C 170.375 -241.445312 168.664062 -235.796875 167.84375 -230.140625 C 167.019531 -224.492188 166.609375 -215.789062 166.609375 -204.03125 L 166.609375 -43.421875 C 166.609375 -31.648438 167.019531 -22.878906 167.84375 -17.109375 C 168.664062 -11.347656 170.375 -5.644531 172.96875 0 L 117.1875 0 C 120.007812 -5.644531 121.832031 -11.347656 122.65625 -17.109375 C 123.476562 -22.878906 123.890625 -31.648438 123.890625 -43.421875 C 123.890625 -47.421875 123.890625 -53.242188 123.890625 -60.890625 C 123.890625 -68.535156 123.890625 -77.179688 123.890625 -86.828125 C 123.890625 -96.484375 123.945312 -106.191406 124.0625 -115.953125 C 124.1875 -125.722656 124.25 -134.722656 124.25 -142.953125 C 124.25 -151.191406 124.25 -157.835938 124.25 -162.890625 C 124.25 -167.953125 124.25 -170.484375 124.25 -170.484375 C 118.832031 -149.078125 113.769531 -128.957031 109.0625 -110.125 C 104.363281 -91.300781 99.894531 -73.003906 95.65625 -55.234375 C 91.425781 -37.472656 87.070312 -19.0625 82.59375 0 L 68.828125 0 C 64.359375 -19.0625 60.0625 -37.535156 55.9375 -55.421875 C 51.820312 -73.304688 47.585938 -91.601562 43.234375 -110.3125 C 38.878906 -129.019531 34 -149.078125 28.59375 -170.484375 C 28.59375 -170.484375 28.59375 -167.953125 28.59375 -162.890625 C 28.59375 -157.835938 28.59375 -151.191406 28.59375 -142.953125 C 28.59375 -134.722656 28.648438 -125.722656 28.765625 -115.953125 C 28.878906 -106.191406 28.9375 -96.484375 28.9375 -86.828125 C 28.9375 -77.179688 28.9375 -68.535156 28.9375 -60.890625 C 28.9375 -53.242188 28.9375 -47.421875 28.9375 -43.421875 C 28.9375 -31.648438 29.347656 -22.878906 30.171875 -17.109375 C 31.003906 -11.347656 32.832031 -5.644531 35.65625 0 Z M 8.125 0 "/></g></g><g style="fill:#6b4153;fill-opacity:1;"><g transform="translate(96.944178, 299.484136)"><path style="stroke:none" d="M 8.125 0 C 10.945312 -5.644531 12.769531 -11.347656 13.59375 -17.109375 C 14.414062 -22.878906 14.828125 -31.648438 14.828125 -43.421875 L 14.828125 -204.03125 C 14.828125 -215.789062 14.414062 -224.492188 13.59375 -230.140625 C 12.769531 -235.796875 10.945312 -241.445312 8.125 -247.09375 L 64.59375 -247.09375 C 63.414062 -244.5 62.648438 -242.257812 62.296875 -240.375 C 61.941406 -238.5 61.765625 -235.5625 61.765625 -231.5625 C 61.765625 -223.320312 63.234375 -211.847656 66.171875 -197.140625 C 69.117188 -182.429688 72.707031 -166.25 76.9375 -148.59375 C 81.175781 -130.945312 85.414062 -113.300781 89.65625 -95.65625 C 92.71875 -108.832031 96.070312 -122.128906 99.71875 -135.546875 C 103.363281 -148.960938 106.773438 -161.785156 109.953125 -174.015625 C 113.128906 -186.253906 115.71875 -197.316406 117.71875 -207.203125 C 119.71875 -217.085938 120.71875 -225.207031 120.71875 -231.5625 C 120.71875 -235.5625 120.539062 -238.5 120.1875 -240.375 C 119.832031 -242.257812 119.066406 -244.5 117.890625 -247.09375 L 172.96875 -247.09375 C 170.375 -241.445312 168.664062 -235.796875 167.84375 -230.140625 C 167.019531 -224.492188 166.609375 -215.789062 166.609375 -204.03125 L 166.609375 -43.421875 C 166.609375 -31.648438 167.019531 -22.878906 167.84375 -17.109375 C 168.664062 -11.347656 170.375 -5.644531 172.96875 0 L 117.1875 0 C 120.007812 -5.644531 121.832031 -11.347656 122.65625 -17.109375 C 123.476562 -22.878906 123.890625 -31.648438 123.890625 -43.421875 C 123.890625 -47.421875 123.890625 -53.242188 123.890625 -60.890625 C 123.890625 -68.535156 123.890625 -77.179688 123.890625 -86.828125 C 123.890625 -96.484375 123.945312 -106.191406 124.0625 -115.953125 C 124.1875 -125.722656 124.25 -134.722656 124.25 -142.953125 C 124.25 -151.191406 124.25 -157.835938 124.25 -162.890625 C 124.25 -167.953125 124.25 -170.484375 124.25 -170.484375 C 118.832031 -149.078125 113.769531 -128.957031 109.0625 -110.125 C 104.363281 -91.300781 99.894531 -73.003906 95.65625 -55.234375 C 91.425781 -37.472656 87.070312 -19.0625 82.59375 0 L 68.828125 0 C 64.359375 -19.0625 60.0625 -37.535156 55.9375 -55.421875 C 51.820312 -73.304688 47.585938 -91.601562 43.234375 -110.3125 C 38.878906 -129.019531 34 -149.078125 28.59375 -170.484375 C 28.59375 -170.484375 28.59375 -167.953125 28.59375 -162.890625 C 28.59375 -157.835938 28.59375 -151.191406 28.59375 -142.953125 C 28.59375 -134.722656 28.648438 -125.722656 28.765625 -115.953125 C 28.878906 -106.191406 28.9375 -96.484375 28.9375 -86.828125 C 28.9375 -77.179688 28.9375 -68.535156 28.9375 -60.890625 C 28.9375 -53.242188 28.9375 -47.421875 28.9375 -43.421875 C 28.9375 -31.648438 29.347656 -22.878906 30.171875 -17.109375 C 31.003906 -11.347656 32.832031 -5.644531 35.65625 0 Z M 8.125 0 "/></g></g></g></svg>