<svg xmlns="http://www.w3.org/2000/svg" xmlns:xlink="http://www.w3.org/1999/xlink" width="500" zoomAndPan="magnify" viewBox="0 0 375 374.999991" height="500" preserveAspectRatio="xMidYMid meet" version="1.2"><defs><clipPath id="97f5dc3317"><path d="M 187.5 0 C 83.945312 0 0 83.945312 0 187.5 C 0 291.054688 83.945312 375 187.5 375 C 291.054688 375 375 291.054688 375 187.5 C 375 83.945312 291.054688 0 187.5 0 Z M 187.5 0 "/></clipPath></defs><g id="9ea706c340"><g clip-rule="nonzero" clip-path="url(#97f5dc3317)"><rect x="0" width="375" y="0" height="374.999991" style="fill:#ffffff;fill-opacity:1;stroke:none;"/></g><g style="fill:#6b4153;fill-opacity:1;"><g transform="translate(104.118284, 311.793733)"><path style="stroke:none" d="M 10.390625 0 L 10.390625 -234.84375 L 82.015625 -234.84375 L 101.703125 -91.578125 L 121.390625 -234.84375 L 193.5625 -234.84375 L 193.5625 0 L 150.640625 0 L 150.640625 -169.234375 L 123.578125 0 L 81.46875 0 L 52.765625 -169.234375 L 52.765625 0 Z M 10.390625 0 "/></g></g><g style="fill:#6b4153;fill-opacity:1;"><g transform="translate(57.750651, 246.911097)"><path style="stroke:none" d="M 52.75 1.75 C 35.75 1.75 23.46875 -2.460938 15.90625 -10.890625 C 8.351562 -19.316406 4.578125 -32.90625 4.578125 -51.65625 L 4.578125 -69.96875 L 41.40625 -69.96875 L 41.40625 -46.640625 C 41.40625 -37.335938 44.382812 -32.6875 50.34375 -32.6875 C 53.6875 -32.6875 56.007812 -33.664062 57.3125 -35.625 C 58.625 -37.59375 59.28125 -40.898438 59.28125 -45.546875 C 59.28125 -51.648438 58.550781 -56.695312 57.09375 -60.6875 C 55.644531 -64.6875 53.796875 -68.03125 51.546875 -70.71875 C 49.296875 -73.414062 45.265625 -77.597656 39.453125 -83.265625 L 23.328125 -99.390625 C 10.828125 -111.585938 4.578125 -125.097656 4.578125 -139.921875 C 4.578125 -155.910156 8.242188 -168.082031 15.578125 -176.4375 C 22.921875 -184.789062 33.640625 -188.96875 47.734375 -188.96875 C 64.585938 -188.96875 76.71875 -184.5 84.125 -175.5625 C 91.539062 -166.625 95.25 -152.640625 95.25 -133.609375 L 57.109375 -133.609375 L 56.890625 -146.46875 C 56.890625 -148.9375 56.195312 -150.894531 54.8125 -152.34375 C 53.4375 -153.800781 51.515625 -154.53125 49.046875 -154.53125 C 46.140625 -154.53125 43.957031 -153.726562 42.5 -152.125 C 41.050781 -150.53125 40.328125 -148.351562 40.328125 -145.59375 C 40.328125 -139.488281 43.8125 -133.164062 50.78125 -126.625 L 72.578125 -105.703125 C 77.660156 -100.765625 81.875 -96.078125 85.21875 -91.640625 C 88.5625 -87.210938 91.25 -81.984375 93.28125 -75.953125 C 95.3125 -69.921875 96.328125 -62.765625 96.328125 -54.484375 C 96.328125 -36.035156 92.945312 -22.050781 86.1875 -12.53125 C 79.4375 -3.007812 68.289062 1.75 52.75 1.75 Z M 52.75 1.75 "/></g></g></g></svg>